P3
32 12
255
0 0 255 8 0 247 16 0 239 24 0 231 32 0 223 41 0 214 49 0 206 57 0 198 65 0 190 74 0 181 82 0 173 90 0 165 98 0 157 106 0 149 115 0 140 123 0 132 131 0 124 139 0 116 148 0 107 156 0 99 164 0 91 172 0 83 180 0 75 189 0 66 197 0 58 205 0 50 213 0 42 222 0 33 230 0 25 238 0 17 246 0 9 255 0 0
0 23 255 8 23 247 16 23 239 24 23 231 32 23 223 41 23 214 49 23 206 57 23 198 65 23 190 74 23 181 82 23 173 90 23 165 98 23 157 106 23 149 115 23 140 123 23 132 131 23 124 139 23 116 148 23 107 156 23 99 164 23 91 172 23 83 180 23 75 189 23 66 197 23 58 205 23 50 213 23 42 222 23 33 230 23 25 238 23 17 246 23 9 255 23 0
0 46 255 8 46 247 16 46 239 24 46 231 32 46 223 41 46 214 49 46 206 57 46 198 65 46 190 74 46 181 82 46 173 90 46 165 98 46 157 106 46 149 115 46 140 123 46 132 131 46 124 139 46 116 148 46 107 156 46 99 164 46 91 172 46 83 180 46 75 189 46 66 197 46 58 205 46 50 213 46 42 222 46 33 230 46 25 238 46 17 246 46 9 255 46 0
0 69 255 8 69 247 16 69 239 24 69 231 32 69 223 41 69 214 49 69 206 57 69 198 65 69 190 74 69 181 82 69 173 90 69 165 98 69 157 106 69 149 115 69 140 123 69 132 131 69 124 139 69 116 148 69 107 156 69 99 164 69 91 172 69 83 180 69 75 189 69 66 197 69 58 205 69 50 213 69 42 222 69 33 230 69 25 238 69 17 246 69 9 255 69 0
0 92 255 8 92 247 16 92 239 24 92 231 32 92 223 41 92 214 49 92 206 57 92 198 65 92 190 74 92 181 82 92 173 90 92 165 98 92 157 106 92 149 115 92 140 123 92 132 131 92 124 139 92 116 148 92 107 156 92 99 164 92 91 172 92 83 180 92 75 189 92 66 197 92 58 205 92 50 213 92 42 222 92 33 230 92 25 238 92 17 246 92 9 255 92 0
0 115 255 8 115 247 16 115 239 24 115 231 32 115 223 41 115 214 49 115 206 57 115 198 65 115 190 74 115 181 82 115 173 90 115 165 98 115 157 106 115 149 115 115 140 123 115 132 131 115 124 139 115 116 148 115 107 156 115 99 164 115 91 172 115 83 180 115 75 189 115 66 197 115 58 205 115 50 213 115 42 222 115 33 230 115 25 238 115 17 246 115 9 255 115 0
0 139 255 8 139 247 16 139 239 24 139 231 32 139 223 41 139 214 49 139 206 57 139 198 65 139 190 74 139 181 82 139 173 90 139 165 98 139 157 106 139 149 115 139 140 123 139 132 131 139 124 139 139 116 148 139 107 156 139 99 164 139 91 172 139 83 180 139 75 189 139 66 197 139 58 205 139 50 213 139 42 222 139 33 230 139 25 238 139 17 246 139 9 255 139 0
0 162 255 8 162 247 16 162 239 24 162 231 32 162 223 41 162 214 49 162 206 57 162 198 65 162 190 74 162 181 82 162 173 90 162 165 98 162 157 106 162 149 115 162 140 123 162 132 131 162 124 139 162 116 148 162 107 156 162 99 164 162 91 172 162 83 180 162 75 189 162 66 197 162 58 205 162 50 213 162 42 222 162 33 230 162 25 238 162 17 246 162 9 255 162 0
0 185 255 8 185 247 16 185 239 24 185 231 32 185 223 41 185 214 49 185 206 57 185 198 65 185 190 74 185 181 82 185 173 90 185 165 98 185 157 106 185 149 115 185 140 123 185 132 131 185 124 139 185 116 148 185 107 156 185 99 164 185 91 172 185 83 180 185 75 189 185 66 197 185 58 205 185 50 213 185 42 222 185 33 230 185 25 238 185 17 246 185 9 255 185 0
0 208 255 8 208 247 16 208 239 24 208 231 32 208 223 41 208 214 49 208 206 57 208 198 65 208 190 74 208 181 82 208 173 90 208 165 98 208 157 106 208 149 115 208 140 123 208 132 131 208 124 139 208 116 148 208 107 156 208 99 164 208 91 172 208 83 180 208 75 189 208 66 197 208 58 205 208 50 213 208 42 222 208 33 230 208 25 238 208 17 246 208 9 255 208 0
0 231 255 8 231 247 16 231 239 24 231 231 32 231 223 41 231 214 49 231 206 57 231 198 65 231 190 74 231 181 82 231 173 90 231 165 98 231 157 106 231 149 115 231 140 123 231 132 131 231 124 139 231 116 148 231 107 156 231 99 164 231 91 172 231 83 180 231 75 189 231 66 197 231 58 205 231 50 213 231 42 222 231 33 230 231 25 238 231 17 246 231 9 255 231 0
0 255 255 8 255 247 16 255 239 24 255 231 32 255 223 41 255 214 49 255 206 57 255 198 65 255 190 74 255 181 82 255 173 90 255 165 98 255 157 106 255 149 115 255 140 123 255 132 131 255 124 139 255 116 148 255 107 156 255 99 164 255 91 172 255 83 180 255 75 189 255 66 197 255 58 205 255 50 213 255 42 222 255 33 230 255 25 238 255 17 246 255 9 255 255 0
